<svg width="36" height="40" viewBox="0 0 36 40" fill="none" xmlns="http://www.w3.org/2000/svg">
<path d="M17.6876 0C6.69756 0 0 7.90323 0 19.8375C0 20.0756 -2.33079e-07 20.3079 0.00573071 20.5401C0.0171926 21.0045 0.376337 21.3776 0.829082 21.3776H34.8136C35.1613 21.3776 35.5166 21.0105 35.5166 20.6472C35.3045 7.83575 28.8897 0 17.6876 0ZM8.81038 15.4433C9.72542 9.36797 12.6845 6.14674 17.7583 6.14674C23.3268 6.14674 26.0739 10.539 26.3566 15.4433H8.81038Z" fill="white"/>
<path d="M34.6722 26.4267C33.6158 33.5995 27.6977 39.4585 17.9703 39.4585C17.8997 39.4585 17.829 39.4585 17.7583 39.4525C17.6876 39.4585 17.6169 39.4585 17.5462 39.4585C7.81892 39.4585 1.90267 33.5995 0.84436 26.4267C0.84436 26.0635 1.12709 25.6963 1.4824 25.6963H8.24492C8.67092 25.6963 9.01859 25.99 9.08927 26.4267C10.1457 31.0412 12.9634 33.2363 17.4049 33.2363C17.5252 33.2363 17.6437 33.2363 17.7583 33.2304C17.8729 33.2363 17.9933 33.2363 18.1117 33.2363C22.5532 33.2363 25.369 31.0392 26.4273 26.4267C26.498 25.99 26.8476 25.6963 27.2717 25.6963H34.0342C34.3876 25.6963 34.6722 26.0635 34.6722 26.4267Z" fill="white"/>
</svg>
