<svg width="93" height="39" viewBox="0 0 93 39" fill="none" xmlns="http://www.w3.org/2000/svg">
<path d="M8.94453 39.0002C3.91289 39.0002 0 36.2547 0 31.3448C0 24.6914 5.13222 23.1612 10.1639 22.4211C14.9916 21.6825 17.4316 21.3117 17.4316 18.831C17.4316 16.8241 15.602 15.5043 12.298 15.5043C8.99413 15.5043 7.11484 16.8771 6.80898 19.0944C6.758 19.4108 6.50449 19.6226 6.19862 19.6226H1.32129C1.06778 19.6226 0.812889 19.3592 0.812889 19.0944C1.16836 13.7093 5.43809 10.54 12.298 10.54C19.6168 10.54 23.4277 14.0256 23.4277 20.0979V27.4369L23.5297 37.8393C23.5297 38.1027 23.2762 38.3675 23.0213 38.3675H18.1426C17.8891 38.3675 17.6342 38.1041 17.6342 37.8393L17.7871 34.6715C15.8555 37.417 12.9594 39.0017 8.94453 39.0017V39.0002ZM10.5193 34.4597C14.6871 34.3537 17.2787 32.0305 17.5322 27.7533V24.7973C16.2109 25.6419 13.9238 25.8537 11.2303 26.329C8.2832 26.8572 6.14764 27.8606 6.14764 30.7121C6.14764 33.2458 7.8244 34.4611 10.518 34.4611L10.5193 34.4597Z" fill="white"/>
<path d="M27.3407 38.3676C27.0858 38.3676 26.8323 38.1043 26.8323 37.8394L27.0362 24.6386L26.8323 11.7025C26.8323 11.4391 27.0858 11.1743 27.3407 11.1743H32.4729C32.7264 11.1743 32.9813 11.4391 32.9813 11.7025L32.7788 15.9797C34.7104 12.653 38.1659 10.9639 41.9272 10.9639C42.3337 10.9639 42.7911 11.0168 43.1975 11.0698C43.451 11.1228 43.7059 11.3861 43.7059 11.7039V15.6118C43.7059 15.8766 43.4524 16.087 43.1975 16.087C42.8421 16.0341 42.4356 16.0341 42.0292 16.0341C37.0995 16.0341 33.2376 18.9915 32.9317 25.1152L33.0337 37.8409C33.0337 38.1043 32.7801 38.3691 32.5253 38.3691H27.3421L27.3407 38.3676Z" fill="white"/>
<path d="M59.1535 33.2451L54.7323 25.6412L51.8348 29.1798L51.9367 37.8387C51.9367 38.1021 51.6832 38.3669 51.4283 38.3669H46.2961C46.0412 38.3669 45.7877 38.1035 45.7877 37.8387L45.9916 19.9383L45.7877 1.93348C45.7877 1.67009 46.0412 1.40527 46.2961 1.40527H51.4283C51.6819 1.40527 51.9367 1.67009 51.9367 1.93348L51.7342 19.8338V22.1041L60.4748 11.5972C60.6787 11.3338 61.0342 11.175 61.3387 11.175H67.1323C67.3348 11.175 67.4367 11.3868 67.2852 11.5443L59.0516 21.0491L68.5555 37.8931C68.6575 38.1049 68.5555 38.3683 68.302 38.3683H62.2039C61.8995 38.3683 61.5936 38.1565 61.442 37.8931L59.1549 33.2466L59.1535 33.2451Z" fill="white"/>
<path d="M80.1412 10.5412C72.2149 10.5412 67.3844 16.2413 67.3844 24.8486C67.3844 25.0204 67.3844 25.1879 67.3885 25.3554C67.3968 25.6903 67.6558 25.9594 67.9824 25.9594H92.493C92.7438 25.9594 93 25.6946 93 25.4327C92.8471 16.1926 88.2205 10.5412 80.1412 10.5412ZM73.7387 21.6794C74.3987 17.2977 76.5328 14.9744 80.1922 14.9744C84.2084 14.9744 86.1897 18.1423 86.3936 21.6794H73.7387ZM85.8866 5.46958L74.451 0.0314826C74.1961 -0.0701507 73.893 0.0844464 73.842 0.349266L72.569 4.3101C72.4712 4.62502 72.62 4.88984 72.9272 4.99577L84.6149 8.69036C84.9221 8.79628 85.2239 8.63739 85.3258 8.37543L86.1401 6.15382C86.242 5.89186 86.1401 5.57408 85.888 5.46815L85.8866 5.46958Z" fill="white"/>
<path d="M92.391 29.601C91.6291 34.7743 87.3607 38.9999 80.3451 38.9999C80.2941 38.9999 80.2431 38.9999 80.1921 38.9956C80.1411 38.9999 80.0902 38.9999 80.0392 38.9999C73.0236 38.9999 68.7566 34.7743 67.9933 29.601C67.9933 29.339 68.1972 29.0742 68.4535 29.0742H73.3308C73.638 29.0742 73.8888 29.2861 73.9398 29.601C74.7017 32.9291 76.7339 34.5123 79.9372 34.5123C80.024 34.5123 80.1095 34.5123 80.1921 34.508C80.2748 34.5123 80.3616 34.5123 80.447 34.5123C83.6504 34.5123 85.6812 32.9277 86.4445 29.601C86.4955 29.2861 86.7476 29.0742 87.0535 29.0742H91.9308C92.1857 29.0742 92.391 29.339 92.391 29.601Z" fill="white"/>
</svg>
