<svg width="77" height="83" viewBox="0 0 77 83" fill="none" xmlns="http://www.w3.org/2000/svg">
<path d="M16.7166 26.8048C16.1205 27.3941 15.3275 27.7482 14.4862 27.8005C13.645 27.8528 12.8133 27.5998 12.1473 27.0889L11.8219 26.8048L1.43733 16.5355C0.841338 15.9461 0.483307 15.1619 0.430411 14.33C0.377514 13.4981 0.633388 12.6757 1.15003 12.0171L1.43733 11.6953L11.8219 1.42607C12.418 0.836696 13.211 0.482644 14.0523 0.430335C14.8935 0.378026 15.7252 0.631057 16.3912 1.14196L16.7166 1.42607L26.0904 10.6923H59.1135L59.875 10.7095C64.3676 10.9074 68.6098 12.8115 71.7181 16.0253C74.8264 19.2391 76.5612 23.5147 76.5612 27.9618C76.5612 32.4088 74.8264 36.6845 71.7181 39.8982C68.6098 43.112 64.3676 45.0161 59.875 45.2141L59.1135 45.2278L50.0131 45.2243L40.9473 54.1928C40.3508 54.7817 39.5576 55.1351 38.7163 55.1868C37.8751 55.2385 37.0437 54.9848 36.3781 54.4735L36.0527 54.1894L26.9835 45.2243H17.5785L16.9762 45.2449C14.3753 45.402 11.9329 46.5345 10.1474 48.4113C8.36193 50.2881 7.36777 52.7678 7.36777 55.3447C7.36777 57.9215 8.36193 60.4012 10.1474 62.278C11.9329 64.1549 14.3753 65.2873 16.9762 65.4445L17.5785 65.4616H59.2693V58.6154C59.2693 55.699 62.6823 54.1757 64.8873 55.9351L65.1781 56.1953L75.5627 66.4645C76.1587 67.054 76.5167 67.8382 76.5696 68.6701C76.6225 69.502 76.3667 70.3244 75.85 70.983L75.5627 71.3048L65.1781 81.574C63.0943 83.6381 59.5912 82.3271 59.29 79.5441L59.2693 79.1539V72.3077H17.5785L16.8343 72.2906C12.4222 72.0945 8.25661 70.2232 5.20459 67.0664C2.15258 63.9096 0.449289 59.7104 0.449289 55.343C0.449289 50.9755 2.15258 46.7763 5.20459 43.6195C8.25661 40.4627 12.4222 38.5914 16.8343 38.3953L17.5785 38.3816L26.3708 38.3782L36.0527 28.8107C36.6488 28.2213 37.4418 27.8673 38.2831 27.815C39.1243 27.7626 39.9559 28.0157 40.6219 28.5266L40.9473 28.8107L50.6258 38.3782H59.1169L59.7331 38.3645C62.4141 38.2049 64.9324 37.0393 66.7737 35.1056C68.6149 33.1719 69.6403 30.6161 69.6403 27.9601C69.6403 25.304 68.6149 22.7482 66.7737 20.8145C64.9324 18.8808 62.4141 17.7152 59.7331 17.5556L59.1169 17.5385H26.0869L16.7166 26.8048Z" fill="white"/>
</svg>
