<svg width="47" height="67" viewBox="0 0 47 67" fill="none" xmlns="http://www.w3.org/2000/svg">
<path fill-rule="evenodd" clip-rule="evenodd" d="M13.282 0.478027H33.6665V7.33696H13.282V0.478027ZM33.3582 11.6507C33.3582 19.9465 39.0032 26.8663 46.5031 28.455V28.7979H26.9338C26.0849 27.7328 24.7874 27.0518 23.3334 27.0518C21.8794 27.0518 20.5819 27.7328 19.7331 28.7979H0.496704V28.455C7.99647 26.8662 13.6413 19.9464 13.6413 11.6507C13.6413 10.4762 13.5281 9.32926 13.3126 8.22112H33.6869C33.4714 9.32924 33.3582 10.4762 33.3582 11.6507ZM19.733 28.798C19.733 28.798 19.7331 28.7979 19.7331 28.7979H26.9338C26.9338 28.7979 26.9338 28.798 26.9338 28.798H19.733ZM19.733 28.798C19.0891 29.606 18.7034 30.6352 18.7034 31.7558C18.7034 34.1548 20.471 36.1344 22.7553 36.4235V66.522H23.9876V36.4132C26.2349 36.0903 27.9634 34.1282 27.9634 31.7558C27.9634 30.6352 27.5777 29.606 26.9338 28.798H46.503L26.786 66.5221H20.2137L0.496704 28.798H19.733Z" fill="white"/>
</svg>
