<svg width="79" height="51" viewBox="0 0 79 51" fill="none" xmlns="http://www.w3.org/2000/svg">
<ellipse cx="39.5" cy="11.375" rx="11.25" ry="11.125" fill="white"/>
<ellipse cx="14.1875" cy="14.1562" rx="8.4375" ry="8.34375" fill="white"/>
<ellipse cx="64.8125" cy="14.1562" rx="8.4375" ry="8.34375" fill="white"/>
<path fill-rule="evenodd" clip-rule="evenodd" d="M0.132868 38.6862C0.124185 38.9622 0.348858 39.1871 0.625 39.1871H27.75C28.0261 39.1871 28.2508 38.9622 28.2421 38.6862C27.9917 30.7258 21.7951 24.3538 14.1875 24.3538C6.57993 24.3538 0.383297 30.7258 0.132868 38.6862Z" fill="white"/>
<path fill-rule="evenodd" clip-rule="evenodd" d="M61 50.3125C61.5523 50.3125 62.0023 49.8638 61.9777 49.312C61.4486 37.488 51.5874 28.0625 39.5 28.0625C27.4126 28.0625 17.5514 37.488 17.0223 49.312C16.9977 49.8638 17.4477 50.3125 18 50.3125H61Z" fill="white"/>
<path fill-rule="evenodd" clip-rule="evenodd" d="M50.7579 38.6862C50.7492 38.9622 50.9739 39.1871 51.25 39.1871H78.375C78.6511 39.1871 78.8758 38.9622 78.8671 38.6862C78.6167 30.7258 72.4201 24.3538 64.8125 24.3538C57.2049 24.3538 51.0083 30.7258 50.7579 38.6862Z" fill="white"/>
</svg>
