<svg width="100" height="100" viewBox="0 0 100 100" fill="none" xmlns="http://www.w3.org/2000/svg">
<rect width="100" height="100" fill="#0E0E0E"/>
<path d="M49.3985 22C33.6174 22 24 33.4606 24 50.7666C24 51.112 24 51.4487 24.0082 51.7854C24.0247 52.4589 24.5404 53 25.1905 53H73.9905C74.4898 53 75 52.4676 75 51.9409C74.6955 33.3627 65.4841 22 49.3985 22ZM36.6513 44.3945C37.9652 35.5846 42.2143 30.9135 49.5 30.9135C57.4962 30.9135 61.4408 37.2827 61.8468 44.3945H36.6513Z" fill="white"/>
<path d="M74 60.0084C72.501 69.9112 64.1035 78 50.3009 78C50.2006 78 50.1003 78 50 77.9918C49.8997 78 49.7994 78 49.6991 78C35.8965 78 27.5017 69.9112 26 60.0084C26 59.5069 26.4012 59 26.9054 59H36.501C37.1055 59 37.5988 59.4055 37.6991 60.0084C39.1981 66.3791 43.1963 69.4097 49.4985 69.4097C49.6693 69.4097 49.8374 69.4097 50 69.4015C50.1626 69.4097 50.3334 69.4097 50.5015 69.4097C56.8037 69.4097 60.7992 66.3764 62.3009 60.0084C62.4012 59.4055 62.8972 59 63.499 59H73.0946C73.5961 59 74 59.5069 74 60.0084Z" fill="white"/>
</svg>
